<svg data-v-423bf9ae="" xmlns="http://www.w3.org/2000/svg" viewBox="0 0 96.06777515417738 163" class="iconAbove"><!----><!----><!----><g data-v-423bf9ae="" id="9bb27a84-1654-44ea-8472-18a32a0aa0f6" fill="#000000" transform="matrix(5.474453012044838,0,0,5.474453012044838,8.34410001829638,88.27372251486014)"><path d="M2.18 12.71C2.07 13.22 1.89 13.37 1.51 13.37C1.13 13.37 0.95 13.22 0.84 12.73C0.70 12.12 0.64 11.49 0.64 8.08C0.64 4.82 0.70 4.20 0.81 3.74C0.94 3.14 1.13 2.97 1.51 2.97C1.95 2.97 2.16 3.25 2.21 3.71C2.31 4.45 2.34 4.96 2.34 5.56C2.34 5.92 2.34 6.02 2.32 6.10L2.60 6.10C2.62 5.98 2.62 5.85 2.62 5.56C2.62 4.93 2.59 4.41 2.49 3.67C2.42 3.05 2.13 2.69 1.51 2.69C0.98 2.69 0.71 2.90 0.55 3.67C0.42 4.17 0.36 4.80 0.36 8.08C0.36 11.49 0.42 12.14 0.57 12.78C0.71 13.44 0.97 13.65 1.51 13.65C2.04 13.65 2.30 13.44 2.45 12.78C2.58 12.22 2.65 11.65 2.65 9.32C2.65 8.65 2.65 8.27 2.62 7.94L1.23 7.94L1.23 8.22L2.35 8.22C2.37 8.37 2.37 8.65 2.37 9.32C2.37 11.59 2.30 12.17 2.17 12.73ZM5.77 13.47L5.77 13.41C5.73 13.08 5.71 12.87 5.63 11.13C5.57 9.90 5.52 9.30 5.46 9.00C5.40 8.71 5.25 8.55 5.10 8.51L5.10 8.46C5.17 8.41 5.26 8.37 5.35 8.25C5.54 7.97 5.68 7.50 5.68 5.73C5.68 4.59 5.63 3.84 5.45 3.39C5.29 3.02 5.07 2.87 4.72 2.87L3.44 2.87L3.44 13.47L3.72 13.47L3.72 8.62L4.55 8.62C4.97 8.62 5.14 8.76 5.18 9.03C5.24 9.34 5.29 9.95 5.35 11.14C5.43 12.89 5.45 13.08 5.49 13.47ZM3.72 8.34L3.72 3.15L4.72 3.15C4.94 3.15 5.10 3.28 5.21 3.54C5.36 3.93 5.40 4.63 5.40 5.73C5.40 7.45 5.33 7.81 5.15 8.08C5.01 8.29 4.86 8.34 4.54 8.34ZM8.72 13.47L7.84 2.87L7.34 2.87L6.37 13.47L6.65 13.47L6.94 10.14L8.16 10.14L8.44 13.47ZM8.15 9.86L6.97 9.86L7.46 4.44C7.50 3.98 7.55 3.58 7.56 3.16L7.62 3.16C7.63 3.58 7.67 3.98 7.70 4.44ZM11.13 9.41C11.14 9.73 11.14 9.98 11.14 10.36C11.14 11.52 11.10 12.33 10.95 12.82C10.82 13.19 10.64 13.37 10.33 13.37C9.93 13.37 9.74 13.20 9.63 12.73C9.51 12.15 9.44 11.35 9.44 8.08C9.44 4.82 9.49 4.20 9.63 3.60C9.74 3.12 9.93 2.97 10.30 2.97C10.64 2.97 10.84 3.14 10.96 3.54C11.10 3.99 11.13 4.72 11.13 5.81C11.13 6.26 11.13 6.44 11.12 6.75L11.40 6.75C11.41 6.44 11.41 6.26 11.41 5.81C11.41 4.70 11.38 3.95 11.23 3.44C11.07 2.93 10.79 2.69 10.30 2.69C9.77 2.69 9.51 2.90 9.37 3.53C9.21 4.17 9.16 4.80 9.16 8.08C9.16 11.35 9.23 12.17 9.37 12.78C9.52 13.43 9.77 13.65 10.33 13.65C10.77 13.65 11.02 13.43 11.19 12.98C11.38 12.45 11.42 11.58 11.42 10.36C11.42 10.01 11.42 9.72 11.41 9.41ZM14.13 13.47L14.13 13.19L12.54 13.19L12.54 8.22L14.11 8.22L14.11 7.94L12.54 7.94L12.54 3.15L14.14 3.15L14.14 2.87L12.26 2.87L12.26 13.47Z"></path></g><defs data-v-423bf9ae=""><linearGradient data-v-423bf9ae="" gradientTransform="rotate(25)" id="9e2e9c13-eb92-48e7-b1ad-c9562676f41a" x1="0%" y1="0%" x2="100%" y2="0%"><stop data-v-423bf9ae="" offset="0%" style="stop-color: rgb(8, 91, 32); stop-opacity: 1;"></stop><stop data-v-423bf9ae="" offset="100%" style="stop-color: rgb(65, 226, 150); stop-opacity: 1;"></stop></linearGradient></defs><g data-v-423bf9ae="" id="dcc7ae09-a5f6-47eb-ada4-cebcfb676f80" transform="matrix(1.0674199953942467,0,0,1.0674199953942467,-4.370987554059923,-7.528744542860565)" stroke="none" fill="url(#9e2e9c13-eb92-48e7-b1ad-c9562676f41a)"><path d="M73.576 41.18c13.263 0 20.692-11.067 21.003-11.537a2.562 2.562 0 0 0 .366-1.935 2.575 2.575 0 0 0-1.119-1.622c-7.02-4.515-13.652-6.806-19.717-6.806-7.85 0-13.103 3.729-16.21 7.002-1.316-3.913-3.946-9.027-9.156-12.908C41.2 7.752 30.598 6.407 17.23 9.378a2.554 2.554 0 0 0-1.945 3.031c.11.514 2.824 12.669 13.786 19.501 6.831 4.258 15.232 5.464 25.021 3.599v14.016c-2.412.642-4.641 2.19-7.161 4.08-2.102 1.577-5.202 2.886-7.475 3.719-3.293-1.814-7.167-3.007-13.489-3.007-2.836 0-5.323.787-7.729 1.548-2.468.782-4.799 1.519-7.613 1.519A5.632 5.632 0 0 0 5 63.009v14.319a5.63 5.63 0 0 0 5.625 5.625c5.348 0 13.711.277 15.555.892 3.324 1.107 11.117 5.728 13.839 7.415l.105.062a6.651 6.651 0 0 0 3.229.836h25.999c2.754 0 5.812-2.546 6.873-4.305 3.407-5.657 15.633-21.051 15.756-21.207.108-.139.205-.289.284-.447 1.585-3.17.369-6.97-2.824-8.84-4.676-2.738-8.599 1.323-10.075 2.852-.314.326-.64.651-.965.975-3.182-1.303-7.648-3.358-8.812-4.383-.39-.344-.771-.697-1.157-1.056-1.837-1.699-3.92-3.624-7.573-5.451a10.918 10.918 0 0 0-1.655-.656V36.948c4.851 2.798 9.67 4.232 14.372 4.232zm5.446-13.292c-4.782-1.792-10.604-1.16-15.112-.14 2.423-1.809 5.777-3.354 10.199-3.354 4.392 0 9.258 1.515 14.502 4.506-2.52 2.725-7.749 7.166-15.035 7.166-3.388 0-6.914-.96-10.526-2.834 3.978-1.104 9.85-2.18 14.177-.556a2.556 2.556 0 1 0 1.795-4.788zm-47.199-.287c-6.387-3.958-9.476-10.301-10.761-13.78 10.509-1.894 18.77-.681 24.576 3.615 2.384 1.764 4.074 3.885 5.312 5.973-4.384-2.971-10.141-5.911-15.778-5.911a2.557 2.557 0 0 0 0 5.114c6.222 0 13.15 4.93 16.898 8.035-7.994 1.33-14.8.331-20.247-3.046zm35.941 45.12c.044.003.088.004.135.004.662 0 1.216.431 1.429 1.022.059.162.104.33.104.511 0 .847-.688 1.535-1.532 1.535-.047 0-.091 0-.135.003l-19.348 1.018c-1.188-.043-3.616-1.581-5.776-3.067-.642-.442-1.264-.881-1.818-1.273a166.91 166.91 0 0 0-1.833-1.283c-1.309-.904-2.556-1.717-3.698-2.288a2.544 2.544 0 0 0-2.28.007 2.54 2.54 0 0 0-1.15 1.137 2.558 2.558 0 0 0 1.143 3.431c1.317.658 3.041 1.878 4.865 3.17 3.835 2.716 7.457 5.282 10.597 5.282.044 0 .091-.001.135-.004l19.372-1.018a6.656 6.656 0 0 0 6.574-6.649c0-.174-.033-.34-.047-.511a6.74 6.74 0 0 0-.378-1.827 127.952 127.952 0 0 0 6.56-5.815 80.381 80.381 0 0 0 2.364-2.344c2.18-2.256 3.047-2.436 3.812-1.989.677.397 1.175 1.175.911 1.953-1.699 2.145-12.557 15.899-15.923 21.488-.448.74-1.945 1.772-2.493 1.831H43.353c-.246 0-.489-.059-.706-.171-.961-.593-10.42-6.403-14.85-7.879-3.296-1.099-14.883-1.154-17.172-1.154a.511.511 0 0 1-.511-.511V63.009c0-.281.229-.511.511-.511 3.604 0 6.554-.933 9.157-1.758 2.221-.703 4.14-1.31 6.185-1.31 3.796 0 6.434.456 8.654 1.284 2.531.944 4.518 2.375 7.03 4.195 1.819 1.318 3.882 2.812 6.53 4.389 1.33.792 3.536 1.411 6.005 1.894 5.309 1.037 11.846 1.438 13.578 1.529z"></path></g><!----></svg>